<svg xmlns="http://www.w3.org/2000/svg" viewBox="0 0 77.62 121.87"><defs><style>.cls-1{fill:none;stroke:#1a1a1a;stroke-miterlimit:10;stroke-width:0.75px;}.cls-2{fill:#1a1a1a;}</style></defs><g id="Layer_2" data-name="Layer 2"><g id="OBJECTS"><line class="cls-1" x1="66.23" y1="17.94" x2="77.31" y2="0.45"/><line class="cls-1" x1="58.44" y1="30.24" x2="63" y2="23.03"/><line class="cls-1" x1="48.7" y1="45.62" x2="54.13" y2="37.05"/><line class="cls-1" x1="66.2" y1="103.81" x2="77.28" y2="121.3"/><line class="cls-1" x1="58.41" y1="91.51" x2="62.98" y2="98.72"/><line class="cls-1" x1="48.68" y1="76.14" x2="54.1" y2="84.7"/><line class="cls-1" x1="11.82" y1="103.77" x2="0.74" y2="121.26"/><line class="cls-1" x1="19.61" y1="91.47" x2="15.04" y2="98.68"/><line class="cls-1" x1="29.35" y1="76.09" x2="23.92" y2="84.66"/><line class="cls-1" x1="11.85" y1="17.9" x2="0.77" y2="0.41"/><line class="cls-1" x1="19.64" y1="30.19" x2="15.07" y2="22.99"/><line class="cls-1" x1="29.37" y1="45.57" x2="23.95" y2="37.01"/><line class="cls-1" x1="73.2" y1="61.16" x2="77.31" y2="61.16"/><line class="cls-1" x1="52.76" y1="61.16" x2="69.75" y2="61.16"/><line class="cls-1" x1="38.85" y1="114.86" x2="38.85" y2="121.34"/><line class="cls-1" x1="38.85" y1="82.58" x2="38.85" y2="109.41"/><line class="cls-1" x1="4.84" y1="60.62" x2="0.73" y2="60.62"/><line class="cls-1" x1="25.28" y1="60.62" x2="8.29" y2="60.62"/><line class="cls-1" x1="39.19" y1="6.92" x2="39.19" y2="0.43"/><line class="cls-1" x1="39.19" y1="39.19" x2="39.19" y2="12.36"/><line class="cls-1" x1="74.86" y1="22.51" x2="77.31" y2="19.89"/><line class="cls-1" x1="50.35" y1="48.79" x2="70.54" y2="27.15"/><line class="cls-1" x1="63.07" y1="4.03" x2="64.71" y2="0.15"/><line class="cls-1" x1="46.63" y1="42.95" x2="60.17" y2="10.89"/><line class="cls-1" x1="74.86" y1="99.26" x2="77.31" y2="101.88"/><line class="cls-1" x1="50.34" y1="73.01" x2="70.53" y2="94.63"/><line class="cls-1" x1="63.63" y1="117.13" x2="65.31" y2="120.97"/><line class="cls-1" x1="46.78" y1="78.65" x2="60.66" y2="110.35"/><line class="cls-1" x1="14.79" y1="4.25" x2="13.13" y2="0.39"/><line class="cls-1" x1="31.39" y1="43" x2="17.72" y2="11.09"/><line class="cls-1" x1="3.23" y1="22.46" x2="0.78" y2="19.84"/><line class="cls-1" x1="27.74" y1="48.75" x2="7.55" y2="27.1"/><line class="cls-1" x1="3.25" y1="99.35" x2="0.81" y2="101.98"/><line class="cls-1" x1="27.74" y1="73.01" x2="7.57" y2="94.71"/><line class="cls-1" x1="14.72" y1="117.44" x2="13.06" y2="121.3"/><line class="cls-1" x1="31.35" y1="78.73" x2="17.65" y2="110.61"/><line class="cls-1" x1="51.64" y1="52.52" x2="77.31" y2="35.5"/><line class="cls-1" x1="51.65" y1="69.23" x2="77.32" y2="86.23"/><line class="cls-1" x1="44.1" y1="80.95" x2="54.4" y2="121.78"/><line class="cls-1" x1="33.51" y1="80.64" x2="22.28" y2="120.86"/><line class="cls-1" x1="26.24" y1="68.5" x2="0.19" y2="84.01"/><line class="cls-1" x1="26.49" y1="52.3" x2="0.95" y2="34.81"/><line class="cls-1" x1="33.54" y1="41.1" x2="22.36" y2="0.85"/><line class="cls-1" x1="44.27" y1="40.93" x2="54.92" y2="0.32"/><line class="cls-1" x1="48.7" y1="45.62" x2="54.13" y2="37.05"/><line class="cls-1" x1="60.88" y1="54.12" x2="77.31" y2="49.04"/><line class="cls-1" x1="52.45" y1="56.73" x2="58.12" y2="54.98"/><line class="cls-1" x1="60.85" y1="67.93" x2="77.24" y2="73.23"/><line class="cls-1" x1="52.43" y1="65.22" x2="58.09" y2="67.04"/><line class="cls-1" x1="43.22" y1="95.46" x2="46.38" y2="121.42"/><line class="cls-1" x1="41.6" y1="82.14" x2="42.69" y2="91.1"/><line class="cls-1" x1="34.41" y1="95.34" x2="30.95" y2="121.2"/><line class="cls-1" x1="36.19" y1="82.07" x2="34.99" y2="91"/><line class="cls-1" x1="17.09" y1="67.29" x2="0.63" y2="72.08"/><line class="cls-1" x1="25.53" y1="64.84" x2="19.85" y2="66.49"/><line class="cls-1" x1="17.22" y1="53.41" x2="0.87" y2="47.77"/><line class="cls-1" x1="25.62" y1="56.31" x2="19.97" y2="54.36"/><line class="cls-1" x1="34.61" y1="26.39" x2="31.33" y2="0.48"/><line class="cls-1" x1="36.3" y1="39.69" x2="35.17" y2="30.75"/><line class="cls-1" x1="43.24" y1="26.34" x2="46.43" y2="0.4"/><line class="cls-1" x1="41.6" y1="39.66" x2="42.7" y2="30.7"/><circle class="cls-2" cx="38.75" cy="60.96" r="23.11"/></g></g></svg>